<!DOCTYPE svg PUBLIC "-//W3C//DTD SVG 1.1//EN" "http://www.w3.org/Graphics/SVG/1.1/DTD/svg11.dtd">
<!-- Uploaded to: SVG Repo, www.svgrepo.com, Transformed by: SVG Repo Mixer Tools -->
<svg height="800px" width="800px" version="1.1" id="Layer_1" xmlns="http://www.w3.org/2000/svg" xmlns:xlink="http://www.w3.org/1999/xlink" viewBox="0 0 512 512" xml:space="preserve" fill="#000000">
<g id="SVGRepo_bgCarrier" stroke-width="0"/>
<g id="SVGRepo_tracerCarrier" stroke-linecap="round" stroke-linejoin="round"/>
<g id="SVGRepo_iconCarrier"> <circle style="fill:#cc6a19;" cx="256" cy="256" r="256"/> <path style="fill:#8d2f07;" d="M264.749,511.834c125.652-4.222,228.338-98.981,244.9-221.118L358.288,139.355l-19.396,5.739 l-36.823-24.967l-85.733,62.493l102.538,102.536L171.468,418.552L264.749,511.834z"/> <path style="fill:#C92F00;" d="M357.959,280.666c38.936-38.936,39.26-102.378,0.328-141.309s-102.374-38.609-141.31,0.328 c-11.679,11.679-12.322,31.258-0.643,42.937c11.679,11.679,31.258,11.038,42.937-0.643c15.574-15.574,41.143-15.896,56.715-0.322 c15.574,15.574,15.251,41.141-0.322,56.715L174.985,379.049c-11.679,11.679-12.322,31.258-0.643,42.937 c11.679,11.679,31.256,11.036,42.937-0.643L357.959,280.666z"/> <path style="fill:#930000;" d="M359.122,140.236L316.8,182.558c14.705,15.641,14.148,40.529-1.136,55.813L174.987,379.049 c-11.679,11.679-12.322,31.258-0.643,42.937c11.679,11.679,31.256,11.036,42.937-0.643l140.678-140.678 C396.607,242.017,397.191,179.236,359.122,140.236z"/> <path style="fill:#FFFFFF;" d="M358.288,139.357c-6.632-6.632-13.986-12.095-21.797-16.453h-97.22 c-7.995,4.432-15.52,10.009-22.292,16.781c-8.38,8.38-11.043,20.813-7.587,31.489h69.463c5.987-1.369,12.224-1.379,18.194,0h82.565 C374.782,159.601,367.69,148.759,358.288,139.357z"/> <g> <path style="fill:#D0D1D3;" d="M359.124,140.235l-30.939,30.939h51.429C374.929,159.954,368.102,149.435,359.124,140.235z"/> <path style="fill:#D0D1D3;" d="M377.918,252.197c7.092-15.205,10.159-31.837,9.219-48.269H327.09 c1.753,12.204-2.098,25.116-11.424,34.444l-13.826,13.826H377.918z"/> <polygon style="fill:#D0D1D3;" points="301.096,337.53 349.365,289.261 264.775,289.261 216.505,337.53 "/> <path style="fill:#D0D1D3;" d="M268.341,370.285h-84.59l-8.764,8.764c-10.605,10.605-12.074,27.701-3.52,39.505h48.604 L268.341,370.285z"/> </g> </g>
</svg>