<?xml version="1.0" encoding="iso-8859-1"?>
<!-- Uploaded to: SVG Repo, www.svgrepo.com, Generator: SVG Repo Mixer Tools -->
<svg version="1.1" id="Layer_1" xmlns="http://www.w3.org/2000/svg" xmlns:xlink="http://www.w3.org/1999/xlink" 
	 viewBox="0 0 501.551 501.551" xml:space="preserve">
<path style="fill:#F2F2F2;" d="M215.249,238.237c-1.045-28.212-4.18-56.424-9.404-84.637c-1.045-5.225-2.09-11.494-3.135-16.718
	l-39.706-104.49H88.816L49.11,136.882c-1.045,5.225-2.09,11.494-3.135,16.718c-5.224,28.212-7.314,56.424-9.404,84.637H215.249z"/>
<path style="fill:#40596B;" d="M199.576,238.237c-1.045-32.392-5.225-64.784-11.494-97.176L153.6,48.065H99.265l-34.482,92.996
	c-6.269,32.392-10.449,64.784-11.494,97.176H199.576z"/>
<path style="fill:#FF7058;" d="M215.249,238.237c-1.045-28.212-4.18-56.424-9.404-84.637H45.976
	c-5.224,28.212-7.314,56.424-9.404,84.637H215.249z"/>
<path style="fill:#F2F2F2;" d="M102.4,238.237h48.065c14.629-5.224,24.033-15.673,24.033-28.212
	c0-17.763-20.898-32.392-48.065-32.392c-26.122,0-48.065,14.629-48.065,32.392C78.367,222.563,87.771,231.967,102.4,238.237z"/>
<path style="fill:#FFD15C;" d="M171.363,7.314C170.318,3.135,166.139,0,161.959,0H88.816c-4.18,0-8.359,3.135-9.404,7.314
	l-7.314,24.033h106.58L171.363,7.314z"/>
<path style="fill:#F2F2F2;" d="M464.98,238.237c-1.045-28.212-4.18-56.424-9.404-84.637c-1.045-5.225-2.09-11.494-3.135-16.718
	l-39.706-104.49h-76.278l-39.706,104.49c-1.045,5.225-2.09,11.494-3.135,16.718c-5.224,28.212-7.314,56.424-9.404,84.637H464.98z"/>
<path style="fill:#40596B;" d="M448.261,238.237c-1.045-32.392-5.224-64.784-11.494-97.176l-34.482-92.996h-53.29l-35.527,92.996
	c-6.269,32.392-10.449,64.784-11.494,97.176H448.261z"/>
<path style="fill:#FF7058;" d="M464.98,238.237c-1.045-28.212-4.18-56.424-9.404-84.637H294.661
	c-5.224,28.212-7.314,56.424-9.404,84.637H464.98z"/>
<path style="fill:#F2F2F2;" d="M351.086,238.237h48.065c14.629-5.224,24.033-15.673,24.033-28.212
	c0-17.763-20.898-32.392-48.065-32.392c-26.122,0-48.065,14.629-48.065,32.392C328.098,222.563,337.502,231.967,351.086,238.237z"/>
<path style="fill:#FFD15C;" d="M420.049,7.314C419.004,3.135,414.824,0,410.645,0h-73.143c-4.18,0-8.359,3.135-9.404,7.314
	l-8.359,25.078h106.58L420.049,7.314z"/>
<path style="fill:#84DBFF;" d="M480.653,235.102H20.898C9.404,235.102,0,244.506,0,256v224.653c0,11.494,9.404,20.898,20.898,20.898
	h459.755c11.494,0,20.898-9.404,20.898-20.898V256C501.551,244.506,492.147,235.102,480.653,235.102z"/>
<rect x="172.408" y="274.808" style="fill:#FFFFFF;" width="155.69" height="45.976"/>
</svg>